<?xml version="1.0" standalone="no"?>
<!DOCTYPE svg PUBLIC "-//W3C//DTD SVG 20010904//EN"
 "http://www.w3.org/TR/2001/REC-SVG-20010904/DTD/svg10.dtd">
<svg version="1.0" xmlns="http://www.w3.org/2000/svg"
 width="511.000000pt" height="488.000000pt" viewBox="0 0 511.000000 488.000000"
 preserveAspectRatio="xMidYMid meet">

<g transform="translate(0.000000,488.000000) scale(0.100000,-0.100000)"
fill="#fff" stroke="none">
<path d="M1380 4449 c-251 -43 -497 -196 -645 -403 -58 -81 -128 -229 -154
-327 -12 -41 -25 -120 -31 -175 -12 -128 -13 -1920 0 -2079 23 -294 159 -559
380 -738 98 -79 265 -165 385 -199 l80 -23 1150 -3 c1204 -3 1225 -3 1365 40
80 25 200 84 283 139 79 53 210 185 266 267 60 88 127 233 151 327 37 142 41
281 38 1321 l-4 999 -27 99 c-100 368 -360 630 -732 738 l-80 23 -1185 1
c-686 1 -1208 -2 -1240 -7z m2573 -602 c37 -8 69 -16 71 -18 2 -2 7 -154 10
-337 7 -359 7 -359 -44 -332 -92 49 -295 72 -412 46 -126 -28 -211 -76 -303
-169 -123 -125 -185 -269 -185 -428 0 -41 -5 -81 -10 -89 -11 -15 -23 -4 -100
86 -14 16 -59 67 -100 114 -41 47 -112 128 -157 180 -45 52 -104 122 -132 154
-54 62 -59 78 -39 123 65 149 264 375 422 477 148 97 344 173 516 200 112 18
357 14 463 -7z m-2307 -49 c38 -40 134 -152 334 -392 47 -56 164 -194 261
-307 216 -250 421 -488 514 -599 39 -45 86 -101 106 -124 20 -23 94 -109 165
-192 166 -193 234 -254 351 -311 174 -85 387 -93 569 -23 41 15 76 25 78 22 9
-17 16 -688 7 -702 -21 -31 -380 -40 -557 -14 -178 26 -373 105 -536 215 -105
71 -228 200 -435 458 -114 141 -210 258 -213 261 -9 6 -388 462 -460 553 l-55
69 -3 -773 c-1 -550 -5 -776 -13 -786 -9 -10 -71 -13 -302 -13 -264 0 -291 2
-303 18 -11 14 -13 254 -14 1331 0 1209 1 1316 17 1333 15 16 36 18 232 18
l217 0 40 -42z"
/>
</g>
</svg>
